<?xml version="1.0" encoding="UTF-8" standalone="no"?>
<svg id="svg2" xmlns:dc="http://purl.org/dc/elements/1.1/" xmlns:cc="http://creativecommons.org/ns#" xmlns:rdf="http://www.w3.org/1999/02/22-rdf-syntax-ns#" xmlns:svg="http://www.w3.org/2000/svg" xmlns="http://www.w3.org/2000/svg" xmlns:xlink="http://www.w3.org/1999/xlink" xmlns:sodipodi="http://sodipodi.sourceforge.net/DTD/sodipodi-0.dtd" xmlns:inkscape="http://www.inkscape.org/namespaces/inkscape" version="1.0" xml:space="preserve" sodipodi:version="0.32" inkscape:version="0.48.0 r9654" inkscape:output_extension="org.inkscape.output.svg.inkscape" sodipodi:docname="KB Canadian French 800px.svg" width="800" height="247" viewBox="0 0 801 248" style="display:inline">

  <metadata id="metadata316">
    <rdf:RDF>
      <cc:Work rdf:about="">
        <dc:format>image/svg+xml</dc:format>
        <dc:type rdf:resource="http://purl.org/dc/dcmitype/StillImage"/>
        <dc:title/>
      </cc:Work>
    </rdf:RDF>
  </metadata>

  <sodipodi:namedview id="base" inkscape:window-width="1679" inkscape:window-height="1019" inkscape:pageshadow="2" inkscape:pageopacity="0.0" borderopacity="1.0" bordercolor="#666666" pagecolor="#ffffff" showguides="true" inkscape:guide-bbox="true" inkscape:zoom="0.6" inkscape:cx="400" inkscape:cy="123.5" inkscape:current-layer="layer3" inkscape:window-x="0" inkscape:window-y="0" showgrid="true" inkscape:window-maximized="1" inkscape:snap-bbox="true" inkscape:bbox-nodes="true" inkscape:snap-nodes="true" inkscape:snap-grids="true" inkscape:bbox-paths="false" fit-margin-top="0" fit-margin-left="0" fit-margin-right="0" fit-margin-bottom="0" units="px" inkscape:snap-bbox-edge-midpoints="false" inkscape:snap-bbox-midpoints="false" inkscape:snap-global="true" inkscape:snap-page="true" inkscape:snap-smooth-nodes="true">
  </sodipodi:namedview>

<defs id="defs4">
   <marker id="TriangleOutM" inkscape:stockid="TriangleOutM" style="overflow:visible" orient="auto" refY="0" refX="0">
    <path id="path4356" style="fill-rule:evenodd;stroke:black;stroke-width:1pt;marker-start:none" d="M 5.77,0 -2.88,5 -2.88,-5 5.77,0 z" transform="scale(0.4,0.4)" inkscape:connector-curvature="0"/>
  </marker>

  <style id="style6" type="text/css">
    <![CDATA[

      text            { writing-mode:lr-tb;font-weight:bold;font-family:Nimbus Sans L, Arial, sans-serif ;}

      #T_others       { font-size:16px; text-align:start ;text-anchor:start ;}
      #T_alterninsc   { font-size:14px; fill:dimgray    ;fill-opacity:1 ;stroke:none; text-align:start ;text-anchor:start ;}
      #T_stdletters   { font-size:21px; fill:black      ;fill-opacity:1 ;stroke:none; text-align:center;text-anchor:middle;}
      #T_stdspecial   { font-size:18px; fill:black      ;fill-opacity:1 ;stroke:none; text-align:center;text-anchor:middle;}
      #T_intodisuse   { font-size:18px; fill:dimgray    ;fill-opacity:1 ;stroke:none; text-align:center;text-anchor:middle;}
      #T_AltGr        { font-size:18px; fill:blue       ;fill-opacity:1 ;stroke:none; text-align:center;text-anchor:middle;}
      #T_AltGrSh      { font-size:18px; fill:dodgerblue ;fill-opacity:1 ;stroke:none; text-align:center;text-anchor:middle;}
      #T_UpAltGr      { font-size:18px; fill:skyblue    ;fill-opacity:1 ;stroke:none; text-align:center;text-anchor:middle;}
      .T_DeadKey      { font-size:21px; fill:red        ;font-family:sans ;}

      #T_Lx_AltGr     { font-size:18px; fill:purple     ;fill-opacity:1 ;stroke:none; text-align:center;text-anchor:middle;}
      #T_Lx_AltGrSh   { font-size:18px; fill:blueviolet ;fill-opacity:1 ;stroke:none; text-align:center;text-anchor:middle;}
      .T_Lx_UpAltGr   { font-size:18px; fill:violet     ;font-family:Sans ;}
      .T_Lx_DeadKey   { font-size:21px; fill:darkorange ;fill-opacity:1 ;stroke:darkorange;stroke-width:0.6;}

      .T_size_s       { font-size:12px; fill:black      ;fill-opacity:1 ;stroke:none; text-align:start ;text-anchor:start ; }
      .T_size_L       { font-size:21px; }

      #GlyphKey       { fill:white      ;stroke:grey   ;stroke-width:1;}
      #ModifKey       { fill:gainsboro  ;stroke:grey   ;stroke-width:1;}
      #OtherKey       { fill:silver     ;stroke:grey   ;stroke-width:1;}
      .K_AltGr        { fill:#D5EEF8    ;stroke:grey   ;stroke-width:1;}

     ]]>
    </style>
</defs>
<!-- ========  Keyboard background ======== -->
<g inkscape:groupmode="layer" id="layer1" inkscape:label="Background" style="display:inline" sodipodi:insensitive="true">
      <rect id="Bckgrd" x="0" y="0" width="801" height="248" style="fill:wheat;stroke:none"/>
</g>

<!-- ========     Keys      ======== -->
<g inkscape:groupmode="layer" id="layer2" inkscape:label="Keys" style="display:inline" sodipodi:insensitive="true">
  <g id="GlyphKey">
<!-- Num keys -->
<!-- Standard letters keys -->
<!-- Specials glyphs keys -->
<!-- Ponctuation keys -->
    <rect id="K_kb2a" x="2" y="2" width="48" height="44" rx="6" ry="6"/>
    <use id="K_kb2b" xlink:href="#K_kb2a" transform="translate(54,0)"/>
    <use id="K_kb2c" xlink:href="#K_kb2a" transform="translate(108,0)"/>
    <use id="K_kb2d" xlink:href="#K_kb2a" transform="translate(162,0)"/>
    <use id="K_kb2e" xlink:href="#K_kb2a" transform="translate(216,0)"/>
    <use id="K_kb2f" xlink:href="#K_kb2a" transform="translate(270,0)"/>
    <use id="K_kb2g" xlink:href="#K_kb2a" transform="translate(324,0)"/>
    <use id="K_kb2h" xlink:href="#K_kb2a" transform="translate(378,0)"/>
    <use id="K_kb2i" xlink:href="#K_kb2a" transform="translate(432,0)"/>
    <use id="K_kb2j" xlink:href="#K_kb2a" transform="translate(486,0)"/>
    <use id="K_kb2k" xlink:href="#K_kb2a" transform="translate(540,0)"/>
    <use id="K_kb2l" xlink:href="#K_kb2a" transform="translate(594,0)"/>
    <use id="K_kb2m" xlink:href="#K_kb2a" transform="translate(648,0)"/>

    <use id="K_kb3b" xlink:href="#K_kb2a" transform="translate(80,50)"/>
    <use id="K_kb3c" xlink:href="#K_kb2a" transform="translate(134,50)"/>
    <use id="K_kb3d" xlink:href="#K_kb2a" transform="translate(188,50)"/>
    <use id="K_kb3e" xlink:href="#K_kb2a" transform="translate(242,50)"/>
    <use id="K_kb3f" xlink:href="#K_kb2a" transform="translate(296,50)"/>
    <use id="K_kb3g" xlink:href="#K_kb2a" transform="translate(350,50)"/>
    <use id="K_kb3h" xlink:href="#K_kb2a" transform="translate(404,50)"/>
    <use id="K_kb3i" xlink:href="#K_kb2a" transform="translate(458,50)"/>
    <use id="K_kb3j" xlink:href="#K_kb2a" transform="translate(512,50)"/>
    <use id="K_kb3k" xlink:href="#K_kb2a" transform="translate(566,50)"/>
    <use id="K_kb3l" xlink:href="#K_kb2a" transform="translate(620,50)"/>
    <use id="K_kb3m" xlink:href="#K_kb2a" transform="translate(674,50)"/>

    <use id="K_kb4b" xlink:href="#K_kb2a" transform="translate(96,100)"/>
    <use id="K_kb4c" xlink:href="#K_kb2a" transform="translate(150,100)"/>
    <use id="K_kb4d" xlink:href="#K_kb2a" transform="translate(204,100)"/>
    <use id="K_kb4e" xlink:href="#K_kb2a" transform="translate(258,100)"/>
    <use id="K_kb4f" xlink:href="#K_kb2a" transform="translate(312,100)"/>
    <use id="K_kb4g" xlink:href="#K_kb2a" transform="translate(366,100)"/>
    <use id="K_kb4h" xlink:href="#K_kb2a" transform="translate(420,100)"/>
    <use id="K_kb4i" xlink:href="#K_kb2a" transform="translate(474,100)"/>
    <use id="K_kb4j" xlink:href="#K_kb2a" transform="translate(528,100)"/>
    <use id="K_kb4k" xlink:href="#K_kb2a" transform="translate(582,100)"/>
    <use id="K_kb4l" xlink:href="#K_kb2a" transform="translate(636,100)"/>
    <use id="K_kb4m" xlink:href="#K_kb2a" transform="translate(690,100)"/>

    <use id="K_kb5b" xlink:href="#K_kb2a" transform="translate(62,150)" class="K_AltGr"/>
    <use id="K_kb5c" xlink:href="#K_kb2a" transform="translate(116,150)"/>
    <use id="K_kb5d" xlink:href="#K_kb2a" transform="translate(170,150)"/>
    <use id="K_kb5e" xlink:href="#K_kb2a" transform="translate(224,150)"/>
    <use id="K_kb5f" xlink:href="#K_kb2a" transform="translate(278,150)"/>
    <use id="K_kb5g" xlink:href="#K_kb2a" transform="translate(332,150)"/>
    <use id="K_kb5h" xlink:href="#K_kb2a" transform="translate(386,150)"/>
    <use id="K_kb5i" xlink:href="#K_kb2a" transform="translate(440,150)"/>
    <use id="K_kb5j" xlink:href="#K_kb2a" transform="translate(494,150)"/>
    <use id="K_kb5k" xlink:href="#K_kb2a" transform="translate(548,150)"/>
    <use id="K_kb5l" xlink:href="#K_kb2a" transform="translate(602,150)"/>

    <rect id="K_kb6d" x="188" y="202" width="364" height="44" rx="6" ry="6"/>
  </g>

<!-- Modification keys -->
  <g id="ModifKey">
    <rect id="K_kb4a" x="2" y="102" width="90" height="44" rx="6" ry="6"/>
    <rect id="K_kb5a" x="2" y="152" width="56" height="44" rx="6" ry="6"/>
    <rect id="K_kb5m" x="658" y="152" width="142" height="44" rx="6" ry="6"/>
    <rect id="K_kb6k" x="558" y="202" width="56" height="44" rx="6" ry="6" class="K_AltGr"/>
  </g>

<!-- Other keys  -->
  <g id="OtherKey">
<!-- Backspace  --> <rect id="K_kb2n" x="704" y="2" width="96" height="44" rx="6" ry="6"/>

<!-- Tabulation --> <rect id="K_kb3a" x="2" y="52" width="74" height="44" rx="6" ry="6"/>
<!-- Enter key -->
    <path id="K_kb3n" sodipodi:nodetypes="ssssssssccss" d="M 736.16,51.79 C 732.72,51.79 730.23,54.35 730.22,57.03 L 730.16,89.63 C 730.15,92.94 732.85,96 736.16,96         L 740.15,96 C 743.231,96 745.85,99.04 745.85,101.59 745.85,104.14 746.09,126.16 746.09,139.44 746.09,141.43           748.11,145.41 752.09,145.41 766.03,145.41 779.97,145.41 793.91,145.41 797.89,145.41 799.88,141.43 799.88,139.44           799.88,112.22 799.88,85 799.88,57.78 799.88,55.79 797.89,51.78 793.91,51.78 z"/>

<!-- Ctrl 1 --> <rect id="K_kb6a" x="2" y="202" width="56" height="44" rx="6" ry="6"/>
<!-- Win  1 --> <rect id="K_kb6b" x="64" y="202" width="56" height="44" rx="6" ry="6"/>
<!-- Alt    --> <rect id="K_kb6c" x="126" y="202" width="56" height="44" rx="6" ry="6"/>
<!-- Win  2 --> <rect id="K_kb6l" x="620" y="202" width="56" height="44" rx="6" ry="6"/>
<!-- Menu   --> <rect id="K_kb6m" x="682" y="202" width="56" height="44" rx="6" ry="6"/>
<!-- Ctrl 2 --> <rect id="K_kb6n" x="744" y="202" width="56" height="44" rx="6" ry="6"/>
  </g>

</g>
<!-- ========     Key signs    ======== -->
<g inkscape:groupmode="layer" id="DrawedInscr" inkscape:label="DrawedInscr" style="display:inline">

<!-- Windows keys -->
  <g id="S_kb6b" style="stroke:white;stroke-width:0.4">
    <path id="WinLogo-1" style="fill:#666" d="M 81.38,223.05 C 84.27,222 87.28,222.2 90.41,223.34 L 92.84,216.82 C 89.92,215.72 86.95,215.23 83.75,216.6 L 81.38,223.05 z" sodipodi:nodetypes="ccccc" inkscape:connector-curvature="0"/>
    <path id="WinLogo-2" style="fill:#9b9b9b" d="M 93.6,216.98 C 97.71,218.37 100.64,217.9 102.86,217.44 L 100.48,223.7 C 96.21,225.27 93.64,224.25 91.14,223.55 L 93.6,216.98 z" sodipodi:nodetypes="ccccc" inkscape:connector-curvature="0"/>
    <path id="WinLogo-3" style="fill:#c1c1c1" d="M 90.94,224.13 C 93.69,225.01 96.58,225.56 100.22,224.43 L 97.29,231.55 C 93.82,232.87 91.18,232.42 88.23,231.37 L 90.94,224.13 z" sodipodi:nodetypes="ccccc" inkscape:connector-curvature="0"/>
    <path id="WinLogo-4" style="fill:#555" d="M 78.38,230.91 C 81.31,229.76 84.33,230 87.41,231.16 L 90.14,223.9 C 88.86,223.47 86,222.29 81,223.82 L 78.38,230.91 z" sodipodi:nodetypes="ccccc" inkscape:connector-curvature="0"/>
  </g>
  <use id="S_kb6l" xlink:href="#S_kb6b" transform="translate(556,0)" x="0" y="0" width="1" height="1"/>
<!--   Menu key     -->
  <g id="S_kb6m">
    <rect id="Menu-1" x="702" y="214" width="16" height="20" style="fill:#d2cfcf;stroke:black;stroke-width:1;stroke-linecap:round;stroke-linejoin:round"/>
    <path id="Menu-2" style="fill:none;stroke:black;stroke-width:4;stroke-linecap:square;stroke-linejoin:miter" d="M 703.5,214 716.5,214 M 703.5,219 716.5,219"/>
    <path id="Menu-3" style="fill:none;stroke:black;stroke-width:2;stroke-linecap:square;stroke-linejoin:miter" d="M 705,223 715,223 M 705,227 715,227 M 705,231 715,231"/>
    <path id="Menu-4" style="fill:none;stroke:#d2cfcf;stroke-width:2;stroke-linecap:square;stroke-linejoin:miter" d="M 705,219 715,219"/>
    <path id="Menu-arrow" style="fill:#d2cfcf;stroke:black;stroke-width:1.4;stroke-linecap:butt;stroke-linejoin:round" d="M 718,231 720,228 724,232 726,230 722,226 724,224 713,219 718,231 z" sodipodi:nodetypes="cccccccc"/>
  </g>
<!--    Backspace     -->
  <path id="S_kb2n" style="fill:none;stroke:black;stroke-width:2;marker-end:url(#TriangleOutM)" d="M 762,15 742,15" sodipodi:nodetypes="cc"/>

<!-- ========     Alternates signs    ======== -->
  <g inkscape:groupmode="layer" id="sublayer3a" inkscape:label="alternative signs" sodipodi:insensitive="true" style="display:inline">
<!-- Tabulations  -->
    <path id="S_kb3a-l1" style="fill:none;stroke:black;stroke-width:2;marker-end:url(#TriangleOutM)" d="M 34,66 14,66"/>
    <path id="S_kb3a-l2" style="fill:none;stroke:black;stroke-width:2" d="M 10,60 10,72"/>
    <path id="S_kb3a-r1" style="fill:none;stroke:black;stroke-width:2;marker-end:url(#TriangleOutM)" d="M 10,82 30,82"/>
    <path id="S_kb3a-r2" style="fill:none;stroke:black;stroke-width:2" d="M 34,76 34,88"/>
<!-- Shift  -->
    <path id="S_kb5a" style="fill:none;stroke:black;stroke-width:2" d="M 30,166 22,174 26,174 26,180 34,180 34,174 38,174 z" inkscape:connector-curvature="0"/>
    <use id="S_kb5n" xlink:href="#S_kb5a" transform="translate(648,0)" x="0" y="0" width="1" height="1"/>
<!-- Enter  -->
    <path id="S_kb3n" style="fill:none;stroke:black;stroke-width:2;marker-end:url(#TriangleOutM)" d="M 784,110 784,118 766,118" inkscape:connector-curvature="0"/>
<!-- Caps Lock  -->
    <g id="S_kb4a">
      <rect id="CapsLock-1" x="10" y="120" width="18" height="14" ry="1" rx="1" style="fill:none;stroke:black;stroke-width:1.6"/>
      <path id="CapsLock-2" style="fill:none;stroke:black;stroke-width:1.4" d="M 12,120 v-3 a7,6 0 0,1 14,0 v3 m-12,0 v-3 a5,4 0 0,1 10,0 v3"/>
      <ellipse id="CapsLock-3" cx="19" cy="125" rx="1" ry="2" sodipodi:cx="19" sodipodi:cy="125" sodipodi:rx="1" sodipodi:ry="2" style="fill:none;stroke:black;stroke-width:1.2"/>
    </g>
  </g>
</g>
<!-- ========     Inscriptions layer    ======== -->
<g inkscape:groupmode="layer" id="en-uk" inkscape:label="incriptions" sodipodi:insensitive="true" style="display:inline">

  <g id="T_stdletters">

    <use xlink:href="#key_AD01_level_1" transform="translate(96, 76)" />
    <use xlink:href="#key_AD02_level_1" transform="translate(150, 76)" />
    <use xlink:href="#key_AD03_level_1" transform="translate(204, 76)" />
    <use xlink:href="#key_AD04_level_1" transform="translate(258, 76)" />
    <use xlink:href="#key_AD05_level_1" transform="translate(312, 76)" />
    <use xlink:href="#key_AD06_level_1" transform="translate(366, 76)" />
    <use xlink:href="#key_AD07_level_1" transform="translate(420, 76)" />
    <use xlink:href="#key_AD08_level_1" transform="translate(474, 76)" />
    <use xlink:href="#key_AD09_level_1" transform="translate(528, 76)" />
    <use xlink:href="#key_AD10_level_1" transform="translate(582, 76)" />
    <use xlink:href="#key_AD11_level_1" transform="translate(636, 76)" />
    <use xlink:href="#key_AD12_level_1" transform="translate(690, 76)" />

    <use xlink:href="#key_AC01_level_1" transform="translate(112, 126)" />
    <use xlink:href="#key_AC02_level_1" transform="translate(166, 126)" />
    <use xlink:href="#key_AC03_level_1" transform="translate(220, 126)" />
    <use xlink:href="#key_AC04_level_1" transform="translate(274, 126)" />
    <use xlink:href="#key_AC05_level_1" transform="translate(328, 126)" />
    <use xlink:href="#key_AC06_level_1" transform="translate(382, 126)" />
    <use xlink:href="#key_AC07_level_1" transform="translate(436, 126)" />
    <use xlink:href="#key_AC08_level_1" transform="translate(490, 126)" />
    <use xlink:href="#key_AC09_level_1" transform="translate(544, 126)" />
    <use xlink:href="#key_AC10_level_1" transform="translate(598, 126)" />
    <use xlink:href="#key_AC11_level_1" transform="translate(652, 126)" />
    <use xlink:href="#key_BKSL_level_1" transform="translate(706, 126)" />

    <use xlink:href="#key_AB01_level_1" transform="translate(132, 176)" />
    <use xlink:href="#key_AB02_level_1" transform="translate(186, 176)" />
    <use xlink:href="#key_AB03_level_1" transform="translate(240, 176)" />
    <use xlink:href="#key_AB04_level_1" transform="translate(294, 176)" />
    <use xlink:href="#key_AB05_level_1" transform="translate(348, 176)" />
    <use xlink:href="#key_AB06_level_1" transform="translate(402, 176)" />
    <use xlink:href="#key_AB07_level_1" transform="translate(454, 176)" />

  </g>

  <g id="T_stdspecial">

    <use xlink:href="#key_TLDE_level_1" transform="translate(14, 34)" />
    <use xlink:href="#key_AE01_level_1" transform="translate(68, 42)" />
    <use xlink:href="#key_AE02_level_1" transform="translate(122, 42)" />
    <use xlink:href="#key_AE03_level_1" transform="translate(176, 42)" />
    <use xlink:href="#key_AE04_level_1" transform="translate(230, 42)" />
    <use xlink:href="#key_AE05_level_1" transform="translate(284, 42)" />
    <use xlink:href="#key_AE06_level_1" transform="translate(338, 42)" />
    <use xlink:href="#key_AE07_level_1" transform="translate(392, 42)" />
    <use xlink:href="#key_AE08_level_1" transform="translate(446, 42)" />
    <use xlink:href="#key_AE09_level_1" transform="translate(500, 42)" />
    <use xlink:href="#key_AE10_level_1" transform="translate(554, 42)" />
    <use xlink:href="#key_AE11_level_1" transform="translate(610, 42)" />
    <use xlink:href="#key_AE12_level_1" transform="translate(662, 42)" />

    <use xlink:href="#key_LSGT_level_1" transform="translate(78, 190))" />
    <use xlink:href="#key_AB08_level_1" transform="translate(508, 190)" />
    <use xlink:href="#key_AB09_level_1" transform="translate(563, 190)" />
    <use xlink:href="#key_AB10_level_1" transform="translate(616, 190)" />

<!--  Shift level      ~   -->

    <use xlink:href="#key_TLDE_level_2" transform="translate(14, 20)" />
    <use xlink:href="#key_AE01_level_2" transform="translate(68, 20)" />
    <use xlink:href="#key_AE02_level_2" transform="translate(122, 20)" />
    <use xlink:href="#key_AE03_level_2" transform="translate(176, 20)" />
    <use xlink:href="#key_AE04_level_2" transform="translate(230, 20)" />
    <use xlink:href="#key_AE05_level_2" transform="translate(284, 20)" />
    <use xlink:href="#key_AE06_level_2" transform="translate(338, 22)" />
    <use xlink:href="#key_AE07_level_2" transform="translate(392, 20)" />
    <use xlink:href="#key_AE08_level_2" transform="translate(446, 20)" />
    <use xlink:href="#key_AE09_level_2" transform="translate(500, 20)" />
    <use xlink:href="#key_AE10_level_2" transform="translate(554, 20)" />
    <use xlink:href="#key_AE11_level_2" transform="translate(608, 20)" />
    <use xlink:href="#key_AE12_level_2" transform="translate(662, 20)" />

    <use xlink:href="#key_AC11_level_2" transform="translate(652, 120)" />
    <use xlink:href="#key_BKSL_level_2" transform="translate(706, 120)" />

    <use xlink:href="#key_AD10_level_2" transform="translate(582, 70)" />
    <use xlink:href="#key_AD11_level_2" transform="translate(636, 70)" />
    <use xlink:href="#key_AD12_level_2" transform="translate(690, 70)" />

    <use xlink:href="#key_LSGT_level_2" transform="translate(78, 170)" />
    <use xlink:href="#key_AB08_level_2" transform="translate(508, 174)" />
    <use xlink:href="#key_AB09_level_2" transform="translate(562, 174)" />
    <use xlink:href="#key_AB10_level_2" transform="translate(616, 174)" />

  </g>

<!--  AltGr level -->

  <g id="T_AltGr">

    <use xlink:href="#key_TLDE_level_3" transform="translate(40, 40), scale(0.8)" />
    <use xlink:href="#key_AE01_level_3" transform="translate(94, 40), scale(0.8)" />
    <use xlink:href="#key_AE02_level_3" transform="translate(146, 40), scale(0.8)" />
    <use xlink:href="#key_AE03_level_3" transform="translate(202, 40), scale(0.8)" />
    <use xlink:href="#key_AE04_level_3" transform="translate(256, 40), scale(0.8)" />
    <use xlink:href="#key_AE05_level_3" transform="translate(310, 40), scale(0.8)" />
    <use xlink:href="#key_AE06_level_3" transform="translate(364, 40), scale(0.8)" />
    <use xlink:href="#key_AE07_level_3" transform="translate(418, 40), scale(0.8)" />
    <use xlink:href="#key_AE08_level_3" transform="translate(472, 40), scale(0.8)" />
    <use xlink:href="#key_AE09_level_3" transform="translate(526, 40), scale(0.8)" />
    <use xlink:href="#key_AE10_level_3" transform="translate(580, 40), scale(0.8)" />
    <use xlink:href="#key_AE11_level_3" transform="translate(632, 40), scale(0.8)" />

    <use xlink:href="#key_AD01_level_3" transform="translate(118, 90), scale(0.8)" />
    <use xlink:href="#key_AD02_level_3" transform="translate(172, 90), scale(0.8)" />
    <use xlink:href="#key_AD03_level_3" transform="translate(226, 90), scale(0.8)" />
    <use xlink:href="#key_AD04_level_3" transform="translate(280, 90), scale(0.8)" />
    <use xlink:href="#key_AD05_level_3" transform="translate(334, 90), scale(0.8)" />
    <use xlink:href="#key_AD06_level_3" transform="translate(388, 90), scale(0.8)" />
    <use xlink:href="#key_AD07_level_3" transform="translate(442, 90), scale(0.8)" />
    <use xlink:href="#key_AD08_level_3" transform="translate(496, 90), scale(0.8)" />
    <use xlink:href="#key_AD09_level_3" transform="translate(550, 90), scale(0.8)" />
    <use xlink:href="#key_AD10_level_3" transform="translate(604, 90), scale(0.8)" />
    <use xlink:href="#key_AD11_level_3" transform="translate(658, 72)" />
    <use xlink:href="#key_AD12_level_3" transform="translate(712, 72)" />

    <use xlink:href="#key_AC01_level_3" transform="translate(134, 140), scale(0.8)" />
    <use xlink:href="#key_AC02_level_3" transform="translate(188, 140), scale(0.8)" />
    <use xlink:href="#key_AC03_level_3" transform="translate(242, 140), scale(0.8)" />
    <use xlink:href="#key_AC04_level_3" transform="translate(296, 140), scale(0.8)" />
    <use xlink:href="#key_AC05_level_3" transform="translate(350, 140), scale(0.8)" />
    <use xlink:href="#key_AC06_level_3" transform="translate(404, 140), scale(0.8)" />
    <use xlink:href="#key_AC07_level_3" transform="translate(458, 140), scale(0.8)" />
    <use xlink:href="#key_AC08_level_3" transform="translate(512, 140), scale(0.8)" />
    <use xlink:href="#key_AC09_level_3" transform="translate(566, 140), scale(0.8)" />
    <use xlink:href="#key_AC10_level_3" transform="translate(620, 122)" />
    <use xlink:href="#key_AC11_level_3" transform="translate(674, 122)" />
    <use xlink:href="#key_BKSL_level_3" transform="translate(728, 122)" />

    <use xlink:href="#key_LSGT_level_3" transform="translate(102, 190), scale(0.8)" />
    <use xlink:href="#key_AB01_level_3" transform="translate(154, 190), scale(0.8)" />
    <use xlink:href="#key_AB02_level_3" transform="translate(208, 190), scale(0.8)" />
    <use xlink:href="#key_AB03_level_3" transform="translate(262, 190), scale(0.8)" />
    <use xlink:href="#key_AB04_level_3" transform="translate(316, 190), scale(0.8)" />
    <use xlink:href="#key_AB05_level_3" transform="translate(370, 190), scale(0.8)" />
    <use xlink:href="#key_AB06_level_3" transform="translate(424, 190), scale(0.8)" />
    <use xlink:href="#key_AB07_level_3" transform="translate(478, 190), scale(0.8)" />
    <use xlink:href="#key_AB08_level_3" transform="translate(532, 190), scale(0.8)" />
    <use xlink:href="#key_AB09_level_3" transform="translate(586, 190), scale(0.8)" />
    <use xlink:href="#key_AB10_level_3" transform="translate(640, 190), scale(0.8)" />


<!-- Shift + AltGr level -->

    <use xlink:href="#key_TLDE_level_4" transform="translate(40, 20), scale(0.8)" />
    <use xlink:href="#key_AE01_level_4" transform="translate(94, 20), scale(0.8)" />
    <use xlink:href="#key_AE10_level_4" transform="translate(580, 20), scale(0.8)" />
    <use xlink:href="#key_AE11_level_4" transform="translate(632, 20), scale(0.8)" />
    <use xlink:href="#key_AE12_level_4" transform="translate(686, 20), scale(0.8)" />

    <use xlink:href="#key_AD07_level_4" transform="translate(442, 70), scale(0.8)" />
    <use xlink:href="#key_AD08_level_4" transform="translate(496, 70), scale(0.8)" />
    <use xlink:href="#key_AD09_level_4" transform="translate(550, 70), scale(0.8)" />
    <use xlink:href="#key_AD10_level_4" transform="translate(604, 70), scale(0.8)" />

    <use xlink:href="#key_AC07_level_4" transform="translate(458, 120), scale(0.8)" />
    <use xlink:href="#key_AC08_level_4" transform="translate(512, 120), scale(0.8)" />
    <use xlink:href="#key_AC09_level_4" transform="translate(566, 120), scale(0.8)" />

    <use xlink:href="#key_AB07_level_4" transform="translate(478, 170), scale(0.8)" />
    <use xlink:href="#key_AB10_level_4" transform="translate(640, 170), scale(0.8)" />
  </g>

  <g id="T_others">
    <text id="T_kb6k" x="67" y="182">AltGr</text>
    <text id="T_kb6a" x="10" y="230">Ctrl</text>
    <text id="T_kb6c" x="134" y="230">Alt</text>
    <text id="T_kb6k" x="562" y="230">AltGr</text>
    <text id="T_kb6n" x="750" y="230">Ctrl</text>
    <text id="T_kb3a" x="38" y="80">Tab</text>
    <text id="T_kb3n" x="746" y="78">Enter</text>
    <text id="T_kb4a1" x="36" y="120">Caps</text>
    <text id="T_kb4a2" x="36" y="136">Lock</text>
    <text id="T_kb5m" x="710" y="180">Shift</text>
    <text id="T_kb2n1" x="708" y="36" style="font-size:14px;">Backspace</text>
  </g>

<!-- ========     Keymap    ======== -->
  <g id="keymap" style="display:none">
    <text id="key_TLDE_level_1" y="8" >`</text>
    <text id="key_AE01_level_1" >1</text>
    <text id="key_AE02_level_1" >2</text>
    <text id="key_AE03_level_1" >3</text>
    <text id="key_AE04_level_1" >4</text>
    <text id="key_AE05_level_1" >5</text>
    <text id="key_AE06_level_1" >6</text>
    <text id="key_AE07_level_1" >7</text>
    <text id="key_AE08_level_1" >8</text>
    <text id="key_AE09_level_1" >9</text>
    <text id="key_AE10_level_1" >0</text>
    <text id="key_AE11_level_1" >'</text>
  	<text id="key_AE12_level_1" >#</text>

    <text id="key_AD01_level_1" >Q</text>
    <text id="key_AD02_level_1" >D</text>
    <text id="key_AD03_level_1" >R</text>
    <text id="key_AD04_level_1" >W</text>
    <text id="key_AD05_level_1" >B</text>
    <text id="key_AD06_level_1" >J</text>
    <text id="key_AD07_level_1" >F</text>
    <text id="key_AD08_level_1" >U</text>
    <text id="key_AD09_level_1" >P</text>
    <text id="key_AD10_level_1" y="12" >_</text>
    <text id="key_AD11_level_1" y="14" >'</text>
    <text id="key_AD12_level_1" y="14" >"</text>

    <text id="key_AC01_level_1" >A</text>
    <text id="key_AC02_level_1" >S</text>
    <text id="key_AC03_level_1" >H</text>
    <text id="key_AC04_level_1" >T</text>
    <text id="key_AC05_level_1" >G</text>
    <text id="key_AC06_level_1" >Y</text>
    <text id="key_AC07_level_1" >N</text>
    <text id="key_AC08_level_1" >E</text>
    <text id="key_AC09_level_1" >O</text>
    <text id="key_AC10_level_1" >I</text>
    <text id="key_AC11_level_1" y="8" >-</text>
    <text id="key_BKSL_level_1" y="8" >+</text>

    <text id="key_LSGT_level_1" ></text>
    <text id="key_AB01_level_1" >Z</text>
    <text id="key_AB02_level_1" >X</text>
    <text id="key_AB03_level_1" >C</text>
    <text id="key_AB04_level_1" >V</text>
    <text id="key_AB05_level_1" >K</text>
    <text id="key_AB06_level_1" >L</text>
    <text id="key_AB07_level_1" >M</text>
    <text id="key_AB08_level_1" >,</text>
    <text id="key_AB09_level_1" >.</text>
    <text id="key_AB10_level_1" >!</text>

    <text id="key_TLDE_level_2" >~</text>
    <text id="key_AE01_level_2" >!</text>
    <text id="key_AE02_level_2" >"</text>
    <text id="key_AE03_level_2" >#</text>
    <text id="key_AE04_level_2" >$</text>
    <text id="key_AE05_level_2" >%</text>
    <text id="key_AE06_level_2" >&amp;</text>
    <text id="key_AE07_level_2" >/</text>
    <text id="key_AE08_level_2" >(</text>
    <text id="key_AE09_level_2" >)</text>
    <text id="key_AE10_level_2" >=</text>
    <text id="key_AE11_level_2" >?</text>
    <text id="key_AE12_level_2" >+</text>

    <text id="key_AD01_level_2" ></text>
    <text id="key_AD02_level_2" ></text>
    <text id="key_AD03_level_2" ></text>
    <text id="key_AD04_level_2" ></text>
    <text id="key_AD05_level_2" ></text>
    <text id="key_AD06_level_2" ></text>
    <text id="key_AD07_level_2" ></text>
    <text id="key_AD08_level_2" ></text>
    <text id="key_AD09_level_2" ></text>
    <text id="key_AD10_level_2" >/</text>
    <text id="key_AD11_level_2" >@</text>
    <text id="key_AD12_level_2" >&amp;</text>

    <text id="key_AC01_level_2" ></text>
    <text id="key_AC02_level_2" ></text>
    <text id="key_AC03_level_2" ></text>
    <text id="key_AC04_level_2" ></text>
    <text id="key_AC05_level_2" ></text>
    <text id="key_AC06_level_2" ></text>
    <text id="key_AC07_level_2" ></text>
    <text id="key_AC08_level_2" ></text>
    <text id="key_AC09_level_2" ></text>
    <text id="key_AC10_level_2" ></text>
    <text id="key_AC11_level_2" >=</text>
    <text id="key_BKSL_level_2" >*</text>

    <text id="key_LSGT_level_2" ></text>
    <text id="key_AB01_level_2" ></text>
    <text id="key_AB02_level_2" ></text>
    <text id="key_AB03_level_2" ></text>
    <text id="key_AB04_level_2" ></text>
    <text id="key_AB05_level_2" ></text>
    <text id="key_AB06_level_2" ></text>
    <text id="key_AB07_level_2" ></text>
    <text id="key_AB08_level_2" >;</text>
    <text id="key_AB09_level_2" >:</text>
    <text id="key_AB10_level_2" y="-3" >?</text>

    <text id="key_TLDE_level_3" >^</text>
    <text id="key_AE01_level_3" >~</text>
    <text id="key_AE02_level_3" y="5" class="T_DeadKey" >ˇ</text>
    <text id="key_AE03_level_3" >^</text>
    <text id="key_AE04_level_3" y="5" class="T_DeadKey" >˘</text>
    <text id="key_AE05_level_3" >°</text>
    <text id="key_AE06_level_3" >&amp;</text>
    <text id="key_AE07_level_3" >`</text>
    <text id="key_AE08_level_3" >·</text>
    <text id="key_AE09_level_3" >‘</text>
    <text id="key_AE10_level_3" >“</text>
    <text id="key_AE11_level_3" class="T_DeadKey" >¨</text>
    <text id="key_AE12_level_3" >#</text>

    <text id="key_AD01_level_3" >¥</text>
    <text id="key_AD02_level_3" >€</text>
    <text id="key_AD03_level_3" >&lt;</text>
    <text id="key_AD04_level_3" y="-4" >[</text>
    <text id="key_AD05_level_3" >?</text>
    <text id="key_AD06_level_3" >/</text>
    <text id="key_AD07_level_3" y="-4" >]</text>
    <text id="key_AD08_level_3" >&gt;</text>
    <text id="key_AD09_level_3" ></text>
    <text id="key_AD10_level_3" y="-2" >|</text>
    <text id="key_AD11_level_3" >Š</text>
    <text id="key_AD12_level_3" >Đ</text>

    <text id="key_AC01_level_3" >£</text>
    <text id="key_AC02_level_3" >$</text>
    <text id="key_AC03_level_3" y="-4" >{</text>
    <text id="key_AC04_level_3" y="-4" >(</text>
    <text id="key_AC05_level_3" y="-4" >%</text>
    <text id="key_AC06_level_3" y="-4" >&amp;</text>
    <text id="key_AC07_level_3" y="-4" >)</text>
    <text id="key_AC08_level_3" y="-4" >}</text>
    <text id="key_AC09_level_3" ></text>
    <text id="key_AC10_level_3" >Č</text>
    <text id="key_AC11_level_3" >Ć</text>
    <text id="key_BKSL_level_3" >Ž</text>

    <text id="key_LSGT_level_3" ></text>
    <text id="key_AB01_level_3" ></text>
    <text id="key_AB02_level_3" ></text>
    <text id="key_AB03_level_3" ></text>
    <text id="key_AB04_level_3" >=</text>
    <text id="key_AB05_level_3" >&lt;</text>
    <text id="key_AB06_level_3" >&gt;</text>
    <text id="key_AB07_level_3" >=</text>
    <text id="key_AB08_level_3" >&gt;</text>
    <text id="key_AB09_level_3" >&lt;</text>
    <text id="key_AB10_level_3" y="-4" >¡</text>

    <text id="key_TLDE_level_4" y="4" class="T_DeadKey" >¨</text>
    <text id="key_AE01_level_4" y="-4" >¡</text>
    <text id="key_AE10_level_4" >÷</text>
    <text id="key_AE11_level_4" y="-4" >¿</text>
  	<text id="key_AE12_level_4" >×</text>

    <text id="key_AD10_level_4" y="-2" >\</text>

    <text id="key_AB10_level_4" y="-4" >¿</text>

  </g>
</g>
</svg>
